name rise35.5848peak51.9257fall54.8793.mot
datacolumns 19
datarows 17
range 21.53324700000000 21.55991400000000
endheader
time	ground_force1_vx	ground_force1_vy	ground_force1_vz	ground_force1_px	ground_force1_py	ground_force1_pz	ground_force2_vx	ground_force2_vy	ground_force2_vz	ground_force2_px	ground_force2_py	ground_force2_pz	ground_torque1_x	ground_torque1_y	ground_torque1_z	ground_torque2_x	ground_torque2_y	ground_torque2_z	
21.53324700000000	-48.60212500000000	820.50969499999997	53.58014700000000	0.10021100000000	0.00000000000000	0.11388100000000	0.00000000000000	0.00000000000000	0.00000000000000	0.00000000000000	0.00000000000000	0.00000000000000	0.00000000000000	21.40987100000000	0.00000000000000	0.00000000000000	0.00000000000000	0.00000000000000	
21.53490900000000	-49.19632000000000	819.19231800000000	53.49723700000000	0.09936200000000	0.00000000000000	0.11380200000000	0.00000000000000	0.00000000000000	0.00000000000000	0.00000000000000	0.00000000000000	0.00000000000000	0.00000000000000	21.38226200000000	0.00000000000000	0.00000000000000	0.00000000000000	0.00000000000000	
21.53658100000000	-49.80838200000000	817.77347799999995	53.39457900000000	0.09851700000000	0.00000000000000	0.11372000000000	0.00000000000000	0.00000000000000	0.00000000000000	0.00000000000000	0.00000000000000	0.00000000000000	0.00000000000000	21.35589800000000	0.00000000000000	0.00000000000000	0.00000000000000	0.00000000000000	
21.53824900000000	-50.43855800000000	816.25158199999998	53.27177100000000	0.09767600000000	0.00000000000000	0.11363400000000	-1.45353900000000	3.88941700000000	1.24114900000000	0.00000000000000	0.00000000000000	0.00000000000000	0.00000000000000	21.33088600000000	0.00000000000000	0.00000000000000	0.36051900000000	0.00000000000000	
21.53991000000000	-51.08703200000000	814.62499000000003	53.12843900000000	0.09683800000000	0.00000000000000	0.11354400000000	-2.34233000000000	7.38014100000000	2.13526100000000	0.00000000000000	0.00000000000000	0.00000000000000	0.00000000000000	21.30732800000000	0.00000000000000	0.00000000000000	0.63637300000000	0.00000000000000	
21.54158300000000	-51.75392400000000	812.89200800000003	52.96424100000000	0.09600500000000	0.00000000000000	0.11345000000000	-3.35110400000000	11.58237700000000	3.17826200000000	0.00000000000000	0.00000000000000	0.00000000000000	0.00000000000000	21.28531400000000	0.00000000000000	0.00000000000000	0.96098500000000	0.00000000000000	
21.54325000000000	-52.43928300000000	811.05089199999998	52.77887000000000	0.09517500000000	0.00000000000000	0.11335200000000	-4.45030700000000	16.44729900000000	4.34800300000000	0.00000000000000	0.00000000000000	0.00000000000000	0.00000000000000	21.26492500000000	0.00000000000000	0.00000000000000	1.32826900000000	0.00000000000000	
21.54490900000000	-53.14308800000000	809.09983999999997	52.57205100000000	0.09434800000000	0.00000000000000	0.11324900000000	-5.60272200000000	21.89424900000000	5.61427000000000	0.00000000000000	0.00000000000000	0.00000000000000	0.00000000000000	21.24623100000000	0.00000000000000	0.00000000000000	1.72961700000000	0.00000000000000	
21.54658300000000	-53.86524100000000	807.03699400000005	52.34354400000000	0.09352500000000	0.00000000000000	0.11314300000000	-6.76589800000000	27.81677500000000	6.94080100000000	0.33428200000000	0.00000000000000	-0.06709900000000	0.00000000000000	21.22929100000000	0.00000000000000	0.00000000000000	4.02066800000000	0.00000000000000	
21.54824800000000	-54.60556200000000	804.86043600000005	52.09314600000000	0.09270500000000	0.00000000000000	0.11303200000000	-7.89525200000000	34.09149800000000	8.28799400000000	0.33811000000000	0.00000000000000	-0.06764000000000	0.00000000000000	21.21415000000000	0.00000000000000	0.00000000000000	4.85932600000000	0.00000000000000	
21.54991700000000	-55.36379400000000	802.56819199999995	51.82068900000000	0.09188900000000	0.00000000000000	0.11291700000000	-8.94741700000000	40.58863800000000	9.61597100000000	0.34157500000000	0.00000000000000	-0.06815800000000	0.00000000000000	21.20084100000000	0.00000000000000	0.00000000000000	5.70232500000000	0.00000000000000	
21.55158000000000	-56.13959200000000	800.15822600000001	51.52604200000000	0.09107500000000	0.00000000000000	0.11279800000000	-9.88339900000000	47.18271500000000	10.88755300000000	0.34472400000000	0.00000000000000	-0.06865500000000	0.00000000000000	21.18938500000000	0.00000000000000	0.00000000000000	6.52727300000000	0.00000000000000	
21.55325100000000	-56.93252200000000	797.62844700000005	51.20911300000000	0.09026500000000	0.00000000000000	0.11267600000000	-10.67113900000000	53.76199200000000	12.07077900000000	0.34759700000000	0.00000000000000	-0.06913400000000	0.00000000000000	21.17978600000000	0.00000000000000	0.00000000000000	7.31436700000000	0.00000000000000	
21.55491700000000	-57.74206200000000	794.97670600000004	50.86984700000000	0.08945700000000	0.00000000000000	0.11254900000000	-11.28722300000000	60.23566700000000	13.14070800000000	0.35022800000000	0.00000000000000	-0.06959700000000	0.00000000000000	21.17203200000000	0.00000000000000	0.00000000000000	8.04757400000000	0.00000000000000	
21.55657700000000	-58.56759600000000	792.20080299999995	50.50822700000000	0.08865300000000	0.00000000000000	0.11241800000000	-11.71765000000000	66.53833500000000	14.08039400000000	0.35264400000000	0.00000000000000	-0.07004700000000	0.00000000000000	21.16609900000000	0.00000000000000	0.00000000000000	8.71533700000000	0.00000000000000	
21.55825100000000	-59.40841400000000	789.29848500000003	50.12427700000000	0.08785100000000	0.00000000000000	0.11228300000000	-11.95772900000000	72.63166200000001	14.88106000000000	0.35487100000000	0.00000000000000	-0.07048500000000	0.00000000000000	21.16194400000000	0.00000000000000	0.00000000000000	9.31080300000000	0.00000000000000	
21.55991400000000	-60.26371000000000	786.26745300000005	49.71805800000000	0.08705200000000	0.00000000000000	0.11214500000000	-12.01121600000000	78.50355700000000	15.54156800000000	0.35692700000000	0.00000000000000	-0.07091100000000	0.00000000000000	21.15950800000000	0.00000000000000	0.00000000000000	9.83162800000000	0.00000000000000	
